<svg xmlns="http://www.w3.org/2000/svg" viewBox="0 0 32 32"><title>68-Calendar</title><g id="_68-Calendar" data-name="68-Calendar"><path d="M15,25.91V28h2V25.91A6,6,0,0,0,21.91,21H24V19H21.91A6,6,0,0,0,17,14.09V12H15v2.09A6,6,0,0,0,10.09,19H8v2h2.09A6,6,0,0,0,15,25.91ZM16,16a4,4,0,1,1-4,4A4,4,0,0,1,16,16Z"/><rect x="15" y="19" width="2" height="2"/><rect x="4" y="4" width="2" height="2"/><rect x="26" y="4" width="2" height="2"/><path d="M29,0H3A3,3,0,0,0,0,3V29a3,3,0,0,0,3,3H26a1,1,0,0,0,.71-.29l5-5A1,1,0,0,0,32,26V3A3,3,0,0,0,29,0Zm1,25H27a2,2,0,0,0-2,2v3H3a1,1,0,0,1-1-1V10H30ZM10,8V6H22V8ZM30,8H24V5a1,1,0,0,0-1-1H9A1,1,0,0,0,8,5V8H2V3A1,1,0,0,1,3,2H29a1,1,0,0,1,1,1Z"/></g></svg>